PathFileType	4	(X/Y/Z)	C:\Users\Basilio\Documents\Thesis Gigler\squatting_fais\c3dfiles\040\SLS_pre_back4\markers_experimental.trc
DataRate	CameraRate	NumFrames	NumMarkers	Units	OrigDataRate	OrigDataStartFrame	OrigNumFrames
200.000000	200.000000	4	63	mm	200.000000	156	1249
Frame#	Time	FHD			LBHD			RBHD			C7			T10			CLAV			LSHO			LUUPA			LMUPA			LDUPA			LLEP			LMEP			LRAD			LUL			LRFIN			RSHO			RUPA1			RMUPA			RDUPA			RLEP			RMEP			RRAD			RUL			RUFIN			LASI			RASI			USACR			LSACR			RSACR			LTHI1			LTHI2			LTHI3			LTHI4			LLFC			LMFC			LTIB1			LTIB2			LTIB3			LTIB4			LLMAL			LMMAL			LHEE			LMT1			LMT2			LMT5			RTHI			RTHI2			RTHI3			RTHI4			RLFC			RMFC			RTIB1			RTIB2			RTIB3			RTIB4			RLMAL			RMMAL			RHEE			RMT1			RMT2			RMT5			*61			*62			
		X1	Y1	Z1	X2	Y2	Z2	X3	Y3	Z3	X4	Y4	Z4	X5	Y5	Z5	X6	Y6	Z6	X7	Y7	Z7	X8	Y8	Z8	X9	Y9	Z9	X10	Y10	Z10	X11	Y11	Z11	X12	Y12	Z12	X13	Y13	Z13	X14	Y14	Z14	X15	Y15	Z15	X16	Y16	Z16	X17	Y17	Z17	X18	Y18	Z18	X19	Y19	Z19	X20	Y20	Z20	X21	Y21	Z21	X22	Y22	Z22	X23	Y23	Z23	X24	Y24	Z24	X25	Y25	Z25	X26	Y26	Z26	X27	Y27	Z27	X28	Y28	Z28	X29	Y29	Z29	X30	Y30	Z30	X31	Y31	Z31	X32	Y32	Z32	X33	Y33	Z33	X34	Y34	Z34	X35	Y35	Z35	X36	Y36	Z36	X37	Y37	Z37	X38	Y38	Z38	X39	Y39	Z39	X40	Y40	Z40	X41	Y41	Z41	X42	Y42	Z42	X43	Y43	Z43	X44	Y44	Z44	X45	Y45	Z45	X46	Y46	Z46	X47	Y47	Z47	X48	Y48	Z48	X49	Y49	Z49	X50	Y50	Z50	X51	Y51	Z51	X52	Y52	Z52	X53	Y53	Z53	X54	Y54	Z54	X55	Y55	Z55	X56	Y56	Z56	X57	Y57	Z57	X58	Y58	Z58	X59	Y59	Z59	X60	Y60	Z60	X61	Y61	Z61	X62	Y62	Z62	X63	Y63	Z63	

157	0.78	-164.1524047851563	1763.6162109375	-1225.853271484375	-289.6898193359376	1717.369873046875	-1268.350830078125	-346.4682922363282	1684.568725585938	-1137.049194335938	-360.1293945312501	1565.502685546875	-1173.93212890625	-425.4858398437501	1257.466186523438	-1130.968994140625	-241.3831024169922	1483.36572265625	-1178.677978515625	-302.7373657226563	1539.405883789063	-1322.596069335938	-167.1078033447266	1443.759521484375	-1413.314086914063	-127.6961059570313	1456.8154296875	-1385.203735351563	-103.6958999633789	1417.7021484375	-1424.907470703125	-53.0596046447754	1379.097778320313	-1429.18505859375	-69.8686981201172	1328.376586914063	-1389.106811523438	217.2248535156251	1364.560546875	-1316.289306640625	224.6192626953126	1349.865844726563	-1390.734619140625	304.4483642578126	1373.170288085938	-1312.720947265625	-260.2760314941407	1538.379760742188	-1036.232421875	-117.2332916259766	1432.307861328125	-972.863464355469	-86.27096557617189	1447.192260742188	-1007.095581054688	-54.65974044799806	1401.068237304688	-981.3815917968752	1.466087698936463	1377.174194335938	-998.4966430664065	-28.10767555236817	1322.407958984375	-1040.637451171875	234.0118103027344	1353.368896484375	-1179.333251953125	256.6897277832032	1339.678344726563	-1107.0693359375	325.1947326660157	1355.468505859375	-1197.493408203125	-274.7539672851563	1062.1220703125	-1241.38232421875	-265.6134338378907	1055.219604492188	-1012.143310546875	-449.1391906738282	1127.611083984375	-1117.940307617188	-461.2388610839845	1098.158081054688	-1146.55908203125	-457.0421447753907	1096.622802734375	-1089.756469726563	-368.5227661132813	808.3889770507815	-1294.057250976563	-321.3039855957032	738.1301879882814	-1291.313842773438	-275.1650695800782	747.1902465820314	-1294.55859375	-335.7189025878907	683.5661621093751	-1275.658203125	-303.9546203613282	554.2170410156251	-1255.151611328125	-310.1277465820313	546.0449218750001	-1124.1201171875	-274.0534057617188	331.6123352050782	-1195.080932617188	-347.4254455566407	295.2017211914063	-1230.548461914063	-305.0676574707032	286.0184326171876	-1216.778076171875	-299.7733154296876	210.6828155517579	-1174.83544921875	-370.0000915527344	126.1347732543946	-1180.712890625	-336.6359558105469	145.8144073486328	-1100.53662109375	-430.7026367187501	99.73030090332034	-1126.055053710938	-218.8363494873047	57.97891235351564	-1105.202514648438	-217.7532196044922	52.06612777709962	-1151.753784179688	-271.1030883789063	37.65943908691407	-1199.85205078125	-333.2742614746094	789.557067871094	-952.4590454101565	-302.7371826171876	730.5023193359376	-957.7915039062502	-270.8371276855469	730.2202148437501	-963.3525390625002	-337.6007690429688	655.0175170898439	-965.085632324219	-352.6629028320313	550.0769042968751	-980.8007812500002	-358.3317871093751	544.7581176757814	-1108.0966796875	-502.352508544922	446.094451904297	-1004.850219726563	-594.3457031250001	502.1798095703126	-987.2005004882815	-587.2857055664064	455.8778686523439	-994.538757324219	-628.5628662109376	427.9313964843751	-1027.855834960938	-755.2980346679689	451.5845031738282	-1012.932861328125	-732.1760253906251	438.1643981933595	-1098.568725585938	-806.529235839844	505.1042785644532	-1074.910888671875	-765.3471069335939	288.5539550781251	-1087.968872070313	-771.4102172851565	288.1713256835938	-1047.876586914063	-813.881042480469	320.3731994628907	-1002.518737792969	nan	nan	nan	nan	nan	nan	
158	0.785	-164.0108489990235	1763.523193359375	-1225.619750976563	-289.2690429687501	1717.233520507813	-1268.2919921875	-346.4283447265626	1684.4892578125	-1137.0126953125	-360.1068725585938	1565.5048828125	-1173.932495117188	-425.5383300781251	1257.505126953125	-1131.006713867188	-241.2740325927735	1483.35400390625	-1178.692016601563	-302.6682739257813	1539.467895507813	-1322.515502929688	-166.5508270263672	1444.34765625	-1413.27587890625	-127.6758270263672	1457.236328125	-1384.861206054688	-103.3833465576172	1418.2119140625	-1424.683959960938	-52.79949951171876	1379.723510742188	-1428.923828125	-69.34434509277345	1328.860473632813	-1389.052124023438	217.4262390136719	1364.379638671875	-1316.086791992188	224.8149719238282	1350.959716796875	-1390.08447265625	304.7652587890626	1373.237548828125	-1311.856811523438	-260.2598266601563	1538.44091796875	-1036.21435546875	-117.4679260253907	1431.982666015625	-972.8468017578127	-86.26324462890626	1447.190185546875	-1007.045715332031	-54.71019744873048	1401.064331054688	-981.388610839844	1.658604741096497	1377.396240234375	-998.5086059570315	-27.91732406616212	1322.639526367188	-1040.6591796875	234.1099700927735	1353.861083984375	-1179.14990234375	256.6137695312501	1340.148315429688	-1106.72705078125	326.2726745605469	1356.358764648438	-1197.304565429688	-274.7720947265626	1062.173950195313	-1241.368530273438	-265.7579040527344	1055.236694335938	-1012.211120605469	-449.2637023925782	1127.71484375	-1118.013549804688	-461.3812866210939	1098.217041015625	-1146.692626953125	-457.2397766113282	1096.614135742188	-1089.863891601563	-368.8872070312501	808.6089477539065	-1294.250610351563	-321.4724121093751	738.2083740234376	-1291.623779296875	-275.2087707519532	747.2498779296876	-1294.719604492188	-335.9029541015626	683.7125854492189	-1275.948974609375	-304.2553710937501	554.3678588867189	-1255.533203125	-310.3705444335938	546.0092773437501	-1124.4208984375	-274.4533081054688	332.2860717773438	-1195.481567382813	-347.6269226074219	295.1810913085938	-1230.959106445313	-304.8519592285157	286.1561584472657	-1217.483154296875	-300.0164489746094	210.773666381836	-1175.207275390625	-370.0870971679688	126.0138473510742	-1180.935913085938	-336.5816650390626	145.9331359863282	-1100.884155273438	-430.7195129394532	99.77519226074222	-1126.205322265625	-218.6436920166016	57.91996383666994	-1105.341796875	-218.1637420654297	52.38531875610353	-1151.838134765625	-270.7980041503907	37.36141204833985	-1199.857177734375	-333.2932128906251	789.5857543945315	-952.4516601562502	-302.5205078125001	730.6971435546876	-957.6068115234377	-270.7937927246094	730.1846923828126	-963.3509521484377	-337.5765991210938	654.9641723632814	-965.1320800781252	-352.4916076660157	550.1163940429689	-980.8564453125002	-358.1989440917969	544.7374267578126	-1108.135375976563	-502.0373535156251	446.482147216797	-1005.014343261719	-593.8997802734376	501.8926391601564	-987.3609619140627	-587.2229003906251	455.6785583496095	-994.5593261718752	-628.2871093750001	427.8370056152345	-1028.059448242188	-755.1677246093751	451.436492919922	-1012.933959960938	-731.9043579101564	437.8328857421876	-1098.627197265625	-806.2558593750002	504.771453857422	-1074.988647460938	-765.2584228515626	288.5354919433594	-1088.1796875	-771.259704589844	287.7106933593751	-1048.070434570313	-813.7167968750002	319.9893493652344	-1002.684997558594	nan	nan	nan	nan	nan	nan	
159	0.79	-163.873764038086	1763.607177734375	-1225.5009765625	-289.5030822753907	1717.47314453125	-1268.235961914063	-346.3960876464844	1684.56494140625	-1136.986694335938	-360.0594482421876	1565.565551757813	-1173.946655273438	-425.2202453613282	1257.8232421875	-1130.853271484375	-241.3633422851563	1483.378295898438	-1178.62841796875	-302.5866394042969	1539.565185546875	-1322.4423828125	-166.2017211914063	1444.916015625	-1413.146118164063	-127.4409942626953	1457.765502929688	-1384.53955078125	-102.9292144775391	1418.822387695313	-1424.400756835938	-52.36946868896486	1380.444458007813	-1428.766967773438	-69.38894653320314	1329.752807617188	-1388.94580078125	217.7645263671876	1364.756469726563	-1315.338989257813	225.2237243652344	1351.955932617188	-1389.475830078125	305.1751098632813	1373.263671875	-1311.097778320313	-260.3005676269532	1538.440551757813	-1036.190063476563	-117.4950485229492	1432.054565429688	-972.8393554687502	-86.46543121337892	1447.199462890625	-1006.940063476563	-54.73884201049806	1401.190673828125	-981.316589355469	1.636037707328797	1377.62158203125	-998.576843261719	-27.94986724853516	1322.775146484375	-1040.639892578125	234.2078399658204	1354.30859375	-1178.949951171875	256.6253662109376	1340.489135742188	-1106.385498046875	326.4549560546876	1357.111328125	-1196.764526367188	-274.8283081054688	1062.217163085938	-1241.379638671875	-265.9211730957032	1055.268920898438	-1012.268859863281	-449.353485107422	1127.75634765625	-1118.030029296875	-461.4967651367189	1098.283935546875	-1146.761474609375	-457.3924560546876	1096.61572265625	-1089.974243164063	-369.0335388183594	808.828796386719	-1294.533569335938	-321.6278686523438	738.3873291015626	-1291.912353515625	-275.3348388671876	747.4042968750001	-1295.022094726563	-336.0515747070313	683.9168090820314	-1276.302368164063	-304.5052185058594	554.5358886718751	-1255.916381835938	-310.5344238281251	545.9682006835939	-1124.711181640625	-274.6047058105469	331.9872131347657	-1196.068603515625	-347.9345703125001	295.1661071777344	-1231.463500976563	-305.3290710449219	286.3247070312501	-1218.101684570313	-300.2290039062501	210.8129425048829	-1175.681030273438	-370.2605895996094	125.9837036132813	-1181.352294921875	-336.2527770996094	145.9306030273438	-1101.41455078125	-430.7788391113282	99.88533020019534	-1126.332397460938	-218.6484069824219	57.9386558532715	-1105.47998046875	-217.8965301513672	52.0329933166504	-1151.891967773438	-271.1171264648438	37.41882705688477	-1200.021118164063	-333.1501464843751	789.5528564453127	-952.503601074219	-302.7403869628907	730.4814453125001	-957.886169433594	-270.7318420410157	730.2709350585939	-963.375183105469	-337.4307861328126	654.9550170898439	-965.1367187500002	-352.3587036132813	550.1087036132814	-980.8491210937502	-357.9999694824219	544.6909179687501	-1108.09326171875	-501.8064880371095	446.2757568359376	-1005.036499023438	-593.7806396484376	501.7601013183595	-987.4768066406252	-586.9480590820314	455.5027770996095	-994.700378417969	-628.2176513671876	427.9517211914064	-1027.688354492188	-754.7868652343751	451.0371398925782	-1013.118469238281	-731.6450805664064	437.5598449707032	-1098.727416992188	-806.1654052734377	504.5215148925782	-1075.07275390625	-764.7759399414064	287.8255920410157	-1088.27099609375	-771.0134277343752	287.4506225585938	-1048.167114257813	-813.4758911132815	319.4558410644532	-1002.825744628906	nan	nan	nan	nan	nan	nan	
160	0.795	-163.6692199707032	1763.593627929688	-1225.296752929688	-289.0950012207032	1717.390502929688	-1268.207397460938	-346.3850402832032	1684.64404296875	-1136.98046875	-359.9500427246094	1565.555419921875	-1173.994140625	-425.3218688964845	1257.865112304688	-1130.914428710938	-241.2398223876954	1483.42529296875	-1178.647216796875	-302.4040832519532	1539.640014648438	-1322.4619140625	-165.9330139160157	1445.369384765625	-1412.991821289063	-127.0619735717774	1458.5126953125	-1384.314819335938	-102.5389785766602	1419.343505859375	-1424.226440429688	-51.97855377197267	1381.051025390625	-1428.505493164063	-68.34384155273439	1329.614379882813	-1388.60205078125	218.0302429199219	1365.455322265625	-1314.6025390625	225.2602844238282	1353.3623046875	-1389.017944335938	305.5072631835938	1373.20654296875	-1310.220825195313	-260.3257141113282	1538.530151367188	-1036.2138671875	-117.5926513671875	1431.822265625	-972.6758422851565	-86.30955505371095	1446.732788085938	-1006.778747558594	-54.71726608276369	1401.343017578125	-981.234558105469	1.815897345542908	1377.743896484375	-998.5200805664065	-27.88659667968751	1322.930786132813	-1040.588500976563	234.3178710937501	1354.7998046875	-1178.8125	256.8519287109376	1340.96435546875	-1106.039428710938	326.8027648925782	1357.964233398438	-1196.30322265625	-274.8498229980469	1062.31201171875	-1241.329833984375	-266.0420227050782	1055.21533203125	-1012.322692871094	-449.7245483398439	1127.346435546875	-1118.160766601563	-462.3823547363282	1099.081909179688	-1147.02783203125	-458.9189758300782	1097.555297851563	-1090.2890625	-369.0802001953126	808.964782714844	-1294.774169921875	-321.7916259765626	738.5399169921876	-1292.27001953125	-275.4990234375001	747.6264648437501	-1295.261108398438	-336.0110168457032	684.0372314453126	-1276.008666992188	-304.8969726562501	554.6071777343751	-1256.318115234375	-310.6753540039063	545.9276123046876	-1125.153564453125	-274.8983459472657	332.3795471191407	-1196.6181640625	-348.2842712402344	295.2005615234376	-1232.024780273438	-305.6710205078126	286.4228820800782	-1218.713623046875	-300.4765930175782	210.8233184814454	-1176.253662109375	-370.2475585937501	126.01025390625	-1181.79296875	-336.1515808105469	145.8782196044922	-1102.011108398438	-430.8042907714845	99.93933105468753	-1126.481323242188	-218.6490325927735	58.09835052490236	-1105.648803710938	-217.7676086425782	51.93711853027345	-1151.963989257813	-270.7687683105469	37.1258773803711	-1200.054565429688	-333.4176025390626	789.576599121094	-952.5026855468752	-302.7447814941407	730.5342407226564	-957.8801269531252	-270.7271728515626	730.3005371093751	-963.3437500000002	-337.3535156250001	655.0538330078126	-965.069519042969	-352.2113952636719	550.1222534179689	-980.8865356445315	-357.8046569824219	544.7147827148439	-1108.064331054688	-501.530731201172	446.171112060547	-1004.997314453125	-593.5234375000001	501.6620178222657	-987.4922485351565	-586.7258911132814	455.2623901367189	-994.7237548828127	-627.4677124023439	427.5397033691407	-1028.356689453125	-754.5355224609376	450.7198791503907	-1013.208923339844	-731.3310546875001	437.3421630859376	-1098.7685546875	-805.952575683594	504.1838378906251	-1075.204467773438	-764.3037719726564	287.5357666015626	-1088.525756835938	-770.476501464844	287.1343688964844	-1048.425415039063	-813.2966918945315	319.1831359863282	-1002.950988769531	nan	nan	nan	nan	nan	nan	
